<?xml version="1.0" encoding="UTF-8"?>
<svg xmlns="http://www.w3.org/2000/svg" viewBox="0 0 886.84 231.74">
  <defs>
    <style>
      .cls-1 {
        fill: #fff;
      }

      .cls-2 {
        fill: #4374b9;
      }
    </style>
  </defs>
  <g id="Layer_1" data-name="Layer 1"/>
  <g id="Layer_2" data-name="Layer 2">
    <g id="Layer_1-2" data-name="Layer 1">
      <circle class="cls-1" cx="516.53" cy="92.64" r="64"/>
      <circle class="cls-1" cx="680.68" cy="145.84" r="40"/>
      <circle class="cls-1" cx="119.16" cy="87.88" r="64"/>
      <rect class="cls-1" x="399.34" y="103.74" width="487.5" height="128" rx="64" ry="64"/>
      <rect class="cls-1" x="0" y="102.73" width="335.62" height="128" rx="64" ry="64"/>
      <circle class="cls-1" cx="204.16" cy="123.03" r="102.4"/>
      <circle class="cls-1" cx="745.98" cy="128.55" r="102.4"/>
      <circle class="cls-1" cx="628.26" cy="102.4" r="102.4"/>
      <g>
        <path class="cls-2" d="M439.12,188.36c-.75-.75-1.13-1.68-1.13-2.78v-52.81c0-1.1,.38-2.04,1.13-2.83,.75-.78,1.68-1.17,2.78-1.17h17.49c6.61,0,12.22,1.47,16.83,4.39,4.61,2.93,8.08,6.71,10.4,11.35,2.32,4.64,3.48,9.51,3.48,14.62s-1.16,9.98-3.48,14.62c-2.32,4.64-5.79,8.43-10.4,11.35-4.61,2.93-10.22,4.39-16.83,4.39h-17.49c-1.1,0-2.03-.38-2.78-1.13Zm19.31-6.26c4.76,0,8.93-.97,12.53-2.91,3.6-1.94,6.38-4.64,8.35-8.09,1.97-3.45,2.96-7.44,2.96-11.96s-.99-8.51-2.96-11.96c-1.97-3.45-4.76-6.15-8.35-8.09-3.6-1.94-7.77-2.91-12.53-2.91h-12.53v45.94h12.53Z"/>
        <path class="cls-2" d="M503.37,184.32c-3.97-4.03-5.96-9.7-5.96-17.01,0-4.12,.75-7.92,2.26-11.4,1.51-3.48,3.83-6.29,6.96-8.44,3.13-2.15,6.99-3.22,11.57-3.22,4.29,0,8,1,11.14,3s5.51,4.67,7.13,8c1.62,3.34,2.44,6.97,2.44,10.92,0,1.1-.36,2.03-1.09,2.78-.73,.75-1.7,1.13-2.91,1.13h-29.49c.46,4.06,1.97,7.22,4.52,9.48,2.55,2.26,6.12,3.39,10.7,3.39,2.44,0,4.57-.23,6.39-.7,1.83-.46,3.61-1.13,5.35-2,.46-.23,.99-.35,1.57-.35,.93,0,1.74,.32,2.44,.96,.7,.64,1.04,1.45,1.04,2.44,0,1.28-.75,2.35-2.26,3.22-2.26,1.28-4.5,2.23-6.7,2.87-2.2,.64-5.05,.96-8.53,.96-7.08,0-12.6-2.01-16.57-6.05Zm27.71-20.66c-.17-2.84-.91-5.22-2.22-7.13s-2.91-3.32-4.83-4.22c-1.91-.9-3.86-1.35-5.83-1.35s-3.92,.45-5.83,1.35c-1.91,.9-3.51,2.31-4.79,4.22-1.28,1.91-2,4.29-2.17,7.13h25.67Z"/>
        <path class="cls-2" d="M561.79,189.01c-.87-.61-1.51-1.38-1.91-2.31l-15.14-36.19c-.29-.7-.43-1.3-.43-1.83,0-1.1,.38-2.04,1.13-2.83,.75-.78,1.68-1.17,2.78-1.17,.75,0,1.46,.22,2.13,.65,.67,.44,1.14,.97,1.44,1.61l13.31,33.76,13.31-33.76c.29-.64,.77-1.17,1.44-1.61,.67-.44,1.38-.65,2.13-.65,1.1,0,2.03,.39,2.78,1.17,.75,.78,1.13,1.73,1.13,2.83,0,.52-.15,1.13-.44,1.83l-15.14,36.19c-.41,.93-1.04,1.7-1.91,2.31-.87,.61-1.83,.91-2.87,.91h-.87c-1.04,0-2-.3-2.87-.91Z"/>
        <path class="cls-2" d="M597.68,184.32c-3.97-4.03-5.96-9.7-5.96-17.01,0-4.12,.75-7.92,2.26-11.4,1.51-3.48,3.83-6.29,6.96-8.44,3.13-2.15,6.99-3.22,11.57-3.22,4.29,0,8,1,11.14,3s5.51,4.67,7.13,8c1.62,3.34,2.44,6.97,2.44,10.92,0,1.1-.36,2.03-1.09,2.78-.73,.75-1.7,1.13-2.91,1.13h-29.49c.46,4.06,1.97,7.22,4.52,9.48,2.55,2.26,6.12,3.39,10.7,3.39,2.44,0,4.57-.23,6.39-.7,1.83-.46,3.61-1.13,5.35-2,.46-.23,.99-.35,1.57-.35,.93,0,1.74,.32,2.44,.96,.7,.64,1.04,1.45,1.04,2.44,0,1.28-.75,2.35-2.26,3.22-2.26,1.28-4.5,2.23-6.7,2.87-2.2,.64-5.05,.96-8.53,.96-7.08,0-12.6-2.01-16.57-6.05Zm27.71-20.66c-.17-2.84-.91-5.22-2.22-7.13s-2.91-3.32-4.83-4.22c-1.91-.9-3.86-1.35-5.83-1.35s-3.92,.45-5.83,1.35c-1.91,.9-3.51,2.31-4.79,4.22-1.28,1.91-2,4.29-2.17,7.13h25.67Z"/>
        <path class="cls-2" d="M644.79,188.8c-.75-.75-1.13-1.68-1.13-2.78v-56.46c0-1.1,.38-2.04,1.13-2.83s1.68-1.17,2.79-1.17c1.16,0,2.12,.38,2.87,1.13,.75,.75,1.13,1.71,1.13,2.87v56.46c0,1.1-.39,2.03-1.18,2.78-.78,.75-1.73,1.13-2.83,1.13s-2.03-.38-2.79-1.13Z"/>
        <path class="cls-2" d="M673.15,187.49c-3.36-1.91-5.96-4.62-7.79-8.13-1.83-3.51-2.74-7.53-2.74-12.05s.91-8.54,2.74-12.05c1.83-3.51,4.42-6.22,7.79-8.13,3.36-1.91,7.28-2.87,11.75-2.87s8.29,.96,11.66,2.87c3.36,1.91,5.97,4.63,7.83,8.13,1.86,3.51,2.78,7.53,2.78,12.05s-.93,8.54-2.78,12.05c-1.86,3.51-4.47,6.22-7.83,8.13-3.37,1.91-7.25,2.87-11.66,2.87s-8.38-.96-11.75-2.87Zm18.57-6c2.17-1.1,3.97-2.84,5.39-5.22,1.42-2.38,2.13-5.39,2.13-9.05s-.71-6.58-2.13-8.96c-1.42-2.38-3.22-4.1-5.39-5.18-2.17-1.07-4.45-1.61-6.83-1.61s-4.74,.54-6.92,1.61c-2.17,1.07-3.96,2.8-5.35,5.18-1.39,2.38-2.09,5.37-2.09,8.96s.7,6.67,2.09,9.05c1.39,2.38,3.18,4.12,5.35,5.22,2.17,1.1,4.48,1.65,6.92,1.65s4.65-.55,6.83-1.65Z"/>
        <path class="cls-2" d="M719.35,208.76c-.75-.78-1.13-1.73-1.13-2.83v-57.33c0-1.1,.38-2.03,1.13-2.78,.75-.75,1.68-1.13,2.78-1.13s2.04,.38,2.83,1.13c.78,.75,1.17,1.68,1.17,2.78v2.26c4.23-4.41,9.19-6.61,14.88-6.61,3.6,0,7,.91,10.22,2.74s5.83,4.5,7.83,8c2,3.51,3,7.61,3,12.31s-1,8.8-3,12.31c-2,3.51-4.61,6.18-7.83,8-3.22,1.83-6.63,2.74-10.22,2.74-5.68,0-10.64-2.2-14.88-6.61v22.19c0,1.16-.38,2.12-1.13,2.87-.75,.75-1.71,1.13-2.87,1.13s-2.03-.39-2.78-1.17Zm30.88-29.88c2.61-2.73,3.92-6.58,3.92-11.57s-1.3-8.84-3.92-11.57c-2.61-2.73-6.06-4.09-10.35-4.09-2.67,0-5.18,.6-7.53,1.78-2.35,1.19-4.42,2.77-6.22,4.74v18.27c1.8,1.97,3.87,3.55,6.22,4.74,2.35,1.19,4.86,1.78,7.53,1.78,4.29,0,7.74-1.36,10.35-4.09Z"/>
        <path class="cls-2" d="M776.37,184.32c-3.97-4.03-5.96-9.7-5.96-17.01,0-4.12,.75-7.92,2.26-11.4,1.51-3.48,3.83-6.29,6.96-8.44,3.13-2.15,6.99-3.22,11.57-3.22,4.29,0,8,1,11.14,3,3.13,2,5.51,4.67,7.13,8,1.62,3.34,2.44,6.97,2.44,10.92,0,1.1-.36,2.03-1.09,2.78-.73,.75-1.7,1.13-2.92,1.13h-29.49c.46,4.06,1.97,7.22,4.52,9.48,2.55,2.26,6.12,3.39,10.7,3.39,2.44,0,4.57-.23,6.39-.7,1.83-.46,3.61-1.13,5.35-2,.46-.23,.99-.35,1.57-.35,.93,0,1.74,.32,2.44,.96,.7,.64,1.04,1.45,1.04,2.44,0,1.28-.75,2.35-2.26,3.22-2.26,1.28-4.5,2.23-6.7,2.87-2.21,.64-5.05,.96-8.53,.96-7.08,0-12.6-2.01-16.57-6.05Zm27.71-20.66c-.17-2.84-.91-5.22-2.22-7.13-1.31-1.91-2.92-3.32-4.83-4.22-1.91-.9-3.86-1.35-5.83-1.35s-3.92,.45-5.83,1.35c-1.91,.9-3.51,2.31-4.78,4.22-1.28,1.91-2,4.29-2.18,7.13h25.67Z"/>
        <path class="cls-2" d="M823.48,188.8c-.75-.75-1.13-1.68-1.13-2.78v-37.32c0-1.1,.38-2.04,1.13-2.83,.75-.78,1.68-1.17,2.78-1.17s2.04,.39,2.83,1.17c.78,.78,1.17,1.73,1.17,2.83v3.74c4.06-5.45,8.61-8.18,13.66-8.18h.43c1.1,0,2.01,.38,2.74,1.13,.72,.75,1.09,1.68,1.09,2.78s-.38,2-1.13,2.7c-.75,.7-1.71,1.04-2.87,1.04h-.43c-2.78,0-5.34,.68-7.66,2.04-2.32,1.36-4.26,3.23-5.83,5.61v26.45c0,1.1-.39,2.03-1.17,2.78-.78,.75-1.73,1.13-2.83,1.13s-2.03-.38-2.78-1.13Z"/>
      </g>
      <g>
        <path class="cls-2" d="M95.98,197.88c-.91-.67-1.59-1.65-2.06-2.93l-17.15-52.67c-.17-.64-.26-1.14-.26-1.49-.06-1.11,.28-2.03,1.01-2.76,.73-.73,1.68-1.09,2.84-1.09,.93,0,1.75,.29,2.45,.88,.7,.58,1.19,1.34,1.49,2.28l14.7,48.3,14.79-48.12c.29-.99,.86-1.79,1.71-2.41,.85-.61,1.79-.92,2.84-.92s2,.31,2.84,.92c.85,.61,1.41,1.42,1.71,2.41l14.79,48.12,14.7-48.3c.29-.93,.79-1.69,1.49-2.28,.7-.58,1.52-.88,2.45-.88,1.17,0,2.11,.37,2.84,1.09,.73,.73,1.06,1.65,1.01,2.76,0,.35-.09,.85-.26,1.49l-17.15,52.67c-.47,1.28-1.15,2.26-2.06,2.93-.91,.67-1.94,1.01-3.11,1.01s-2.23-.37-3.19-1.09c-.96-.73-1.62-1.68-1.97-2.84l-14.09-44.62-14.09,44.62c-.35,1.17-1.01,2.12-1.97,2.84s-2.03,1.09-3.19,1.09-2.2-.34-3.11-1.01Z"/>
        <path class="cls-2" d="M168.78,193.24c-4-4.05-5.99-9.76-5.99-17.11,0-4.14,.76-7.96,2.27-11.46,1.52-3.5,3.85-6.33,7-8.49,3.15-2.16,7.03-3.24,11.64-3.24,4.32,0,8.05,1.01,11.2,3.02,3.15,2.01,5.54,4.7,7.17,8.05,1.63,3.35,2.45,7.02,2.45,10.98,0,1.11-.37,2.04-1.09,2.8-.73,.76-1.71,1.14-2.93,1.14h-29.66c.47,4.08,1.98,7.26,4.55,9.54,2.57,2.27,6.15,3.41,10.76,3.41,2.45,0,4.59-.23,6.43-.7,1.84-.47,3.63-1.14,5.38-2.01,.47-.23,.99-.35,1.58-.35,.93,0,1.75,.32,2.45,.96,.7,.64,1.05,1.46,1.05,2.45,0,1.28-.76,2.36-2.28,3.24-2.27,1.28-4.52,2.25-6.74,2.89-2.22,.64-5.08,.96-8.58,.96-7.12,0-12.67-2.03-16.67-6.08Zm27.87-20.78c-.17-2.86-.92-5.25-2.23-7.18-1.31-1.92-2.93-3.34-4.86-4.24-1.93-.9-3.88-1.36-5.86-1.36s-3.94,.45-5.86,1.36c-1.92,.91-3.53,2.32-4.81,4.24-1.28,1.93-2.01,4.32-2.19,7.18h25.81Z"/>
        <path class="cls-2" d="M222.98,192.67v2.27c0,1.11-.39,2.04-1.18,2.8-.79,.76-1.74,1.14-2.84,1.14s-2.04-.38-2.8-1.14c-.76-.76-1.14-1.69-1.14-2.8v-56.79c0-1.11,.38-2.06,1.14-2.84,.76-.79,1.69-1.18,2.8-1.18,1.17,0,2.13,.38,2.89,1.14,.76,.76,1.14,1.72,1.14,2.89v21.44c4.26-4.43,9.25-6.65,14.96-6.65,3.62,0,7.04,.92,10.28,2.76,3.24,1.84,5.86,4.52,7.88,8.05,2.01,3.53,3.02,7.66,3.02,12.38s-1.01,8.85-3.02,12.38c-2.01,3.53-4.64,6.21-7.88,8.05-3.24,1.84-6.67,2.76-10.28,2.76-5.72,0-10.71-2.22-14.96-6.65Zm24.24-4.9c2.62-2.74,3.94-6.62,3.94-11.64s-1.31-8.9-3.94-11.64c-2.62-2.74-6.1-4.11-10.41-4.11-2.68,0-5.21,.6-7.57,1.79-2.36,1.2-4.45,2.79-6.26,4.77v18.38c1.81,1.98,3.89,3.57,6.26,4.77,2.36,1.2,4.88,1.79,7.57,1.79,4.32,0,7.79-1.37,10.41-4.11Z"/>
      </g>
    </g>
  </g>
</svg>