<?xml version="1.0" encoding="UTF-8"?>
<svg xmlns="http://www.w3.org/2000/svg" width="487.5" height="230.95" viewBox="0 0 487.5 230.95">
  <g id="Layer_1" data-name="Layer 1"/>
  <g id="Layer_2" data-name="Layer 2">
    <g id="Layer_1-2" data-name="Layer 1">
      <circle cx="120.23" cy="92.64" r="64" fill="#fff"/>
      <circle cx="284.37" cy="145.84" r="40" fill="#fff"/>
      <rect x="0" y="102.32" width="487.5" height="128" rx="64" ry="64" fill="#fff"/>
      <circle cx="349.68" cy="128.55" r="102.4" fill="#fff"/>
      <circle cx="231.96" cy="102.4" r="102.4" fill="#fff"/>
      <g>
        <path d="M45.86,189.78c-.75-.75-1.13-1.68-1.13-2.78v-52.81c0-1.1,.38-2.04,1.13-2.83,.75-.78,1.68-1.17,2.78-1.17h17.49c6.61,0,12.22,1.47,16.83,4.39,4.61,2.93,8.08,6.71,10.4,11.35,2.32,4.64,3.48,9.51,3.48,14.62s-1.16,9.98-3.48,14.62c-2.32,4.64-5.79,8.43-10.4,11.35-4.61,2.93-10.22,4.39-16.83,4.39h-17.49c-1.1,0-2.03-.38-2.78-1.13Zm19.31-6.26c4.76,0,8.93-.97,12.53-2.91,3.6-1.94,6.38-4.64,8.35-8.09,1.97-3.45,2.96-7.44,2.96-11.96s-.99-8.51-2.96-11.96c-1.97-3.45-4.76-6.15-8.35-8.09-3.6-1.94-7.77-2.91-12.53-2.91h-12.53v45.94h12.53Z" fill="#4374b9"/>
        <path d="M110.11,185.74c-3.97-4.03-5.96-9.7-5.96-17.01,0-4.12,.75-7.92,2.26-11.4,1.51-3.48,3.83-6.29,6.96-8.44,3.13-2.15,6.99-3.22,11.57-3.22,4.29,0,8,1,11.14,3s5.51,4.67,7.13,8c1.62,3.34,2.44,6.97,2.44,10.92,0,1.1-.36,2.03-1.09,2.78-.73,.75-1.7,1.13-2.91,1.13h-29.49c.46,4.06,1.97,7.22,4.52,9.48,2.55,2.26,6.12,3.39,10.7,3.39,2.44,0,4.57-.23,6.39-.7,1.83-.46,3.61-1.13,5.35-2,.46-.23,.99-.35,1.57-.35,.93,0,1.74,.32,2.44,.96,.7,.64,1.04,1.45,1.04,2.44,0,1.28-.75,2.35-2.26,3.22-2.26,1.28-4.5,2.23-6.7,2.87-2.2,.64-5.05,.96-8.53,.96-7.08,0-12.6-2.01-16.57-6.05Zm27.71-20.66c-.17-2.84-.91-5.22-2.22-7.13s-2.91-3.32-4.83-4.22c-1.91-.9-3.86-1.35-5.83-1.35s-3.92,.45-5.83,1.35c-1.91,.9-3.51,2.31-4.79,4.22-1.28,1.91-2,4.29-2.17,7.13h25.67Z" fill="#4374b9"/>
        <path d="M168.53,190.44c-.87-.61-1.51-1.38-1.91-2.31l-15.14-36.19c-.29-.7-.43-1.3-.43-1.83,0-1.1,.38-2.04,1.13-2.83,.75-.78,1.68-1.17,2.78-1.17,.75,0,1.46,.22,2.13,.65,.67,.44,1.14,.97,1.44,1.61l13.31,33.76,13.31-33.76c.29-.64,.77-1.17,1.44-1.61,.67-.44,1.38-.65,2.13-.65,1.1,0,2.03,.39,2.78,1.17,.75,.78,1.13,1.73,1.13,2.83,0,.52-.15,1.13-.44,1.83l-15.14,36.19c-.41,.93-1.04,1.7-1.91,2.31-.87,.61-1.83,.91-2.87,.91h-.87c-1.04,0-2-.3-2.87-.91Z" fill="#4374b9"/>
        <path d="M204.42,185.74c-3.97-4.03-5.96-9.7-5.96-17.01,0-4.12,.75-7.92,2.26-11.4,1.51-3.48,3.83-6.29,6.96-8.44,3.13-2.15,6.99-3.22,11.57-3.22,4.29,0,8,1,11.14,3s5.51,4.67,7.13,8c1.62,3.34,2.44,6.97,2.44,10.92,0,1.1-.36,2.03-1.09,2.78-.73,.75-1.7,1.13-2.91,1.13h-29.49c.46,4.06,1.97,7.22,4.52,9.48,2.55,2.26,6.12,3.39,10.7,3.39,2.44,0,4.57-.23,6.39-.7,1.83-.46,3.61-1.13,5.35-2,.46-.23,.99-.35,1.57-.35,.93,0,1.74,.32,2.44,.96,.7,.64,1.04,1.45,1.04,2.44,0,1.28-.75,2.35-2.26,3.22-2.26,1.28-4.5,2.23-6.7,2.87-2.2,.64-5.05,.96-8.53,.96-7.08,0-12.6-2.01-16.57-6.05Zm27.71-20.66c-.17-2.84-.91-5.22-2.22-7.13s-2.91-3.32-4.83-4.22c-1.91-.9-3.86-1.35-5.83-1.35s-3.92,.45-5.83,1.35c-1.91,.9-3.51,2.31-4.79,4.22-1.28,1.91-2,4.29-2.17,7.13h25.67Z" fill="#4374b9"/>
        <path d="M251.53,190.22c-.75-.75-1.13-1.68-1.13-2.78v-56.46c0-1.1,.38-2.04,1.13-2.83s1.68-1.17,2.79-1.17c1.16,0,2.12,.38,2.87,1.13,.75,.75,1.13,1.71,1.13,2.87v56.46c0,1.1-.39,2.03-1.18,2.78-.78,.75-1.73,1.13-2.83,1.13s-2.03-.38-2.79-1.13Z" fill="#4374b9"/>
        <path d="M279.89,188.91c-3.36-1.91-5.96-4.62-7.79-8.13-1.83-3.51-2.74-7.53-2.74-12.05s.91-8.54,2.74-12.05c1.83-3.51,4.42-6.22,7.79-8.13,3.36-1.91,7.28-2.87,11.75-2.87s8.29,.96,11.66,2.87c3.36,1.91,5.97,4.63,7.83,8.13,1.86,3.51,2.78,7.53,2.78,12.05s-.93,8.54-2.78,12.05c-1.86,3.51-4.47,6.22-7.83,8.13-3.37,1.91-7.25,2.87-11.66,2.87s-8.38-.96-11.75-2.87Zm18.57-6c2.17-1.1,3.97-2.84,5.39-5.22,1.42-2.38,2.13-5.39,2.13-9.05s-.71-6.58-2.13-8.96c-1.42-2.38-3.22-4.1-5.39-5.18-2.17-1.07-4.45-1.61-6.83-1.61s-4.74,.54-6.92,1.61c-2.17,1.07-3.96,2.8-5.35,5.18-1.39,2.38-2.09,5.37-2.09,8.96s.7,6.67,2.09,9.05c1.39,2.38,3.18,4.12,5.35,5.22,2.17,1.1,4.48,1.65,6.92,1.65s4.65-.55,6.83-1.65Z" fill="#4374b9"/>
        <path d="M326.09,210.18c-.75-.78-1.13-1.73-1.13-2.83v-57.33c0-1.1,.38-2.03,1.13-2.78,.75-.75,1.68-1.13,2.78-1.13s2.04,.38,2.83,1.13c.78,.75,1.17,1.68,1.17,2.78v2.26c4.23-4.41,9.19-6.61,14.88-6.61,3.6,0,7,.91,10.22,2.74s5.83,4.5,7.83,8c2,3.51,3,7.61,3,12.31s-1,8.8-3,12.31c-2,3.51-4.61,6.18-7.83,8-3.22,1.83-6.63,2.74-10.22,2.74-5.68,0-10.64-2.2-14.88-6.61v22.19c0,1.16-.38,2.12-1.13,2.87-.75,.75-1.71,1.13-2.87,1.13s-2.03-.39-2.78-1.17Zm30.88-29.88c2.61-2.73,3.92-6.58,3.92-11.57s-1.3-8.84-3.92-11.57c-2.61-2.73-6.06-4.09-10.35-4.09-2.67,0-5.18,.6-7.53,1.78-2.35,1.19-4.42,2.77-6.22,4.74v18.27c1.8,1.97,3.87,3.55,6.22,4.74,2.35,1.19,4.86,1.78,7.53,1.78,4.29,0,7.74-1.36,10.35-4.09Z" fill="#4374b9"/>
        <path d="M383.11,185.74c-3.97-4.03-5.96-9.7-5.96-17.01,0-4.12,.75-7.92,2.26-11.4,1.51-3.48,3.83-6.29,6.96-8.44,3.13-2.15,6.99-3.22,11.57-3.22,4.29,0,8,1,11.14,3,3.13,2,5.51,4.67,7.13,8,1.62,3.34,2.44,6.97,2.44,10.92,0,1.1-.36,2.03-1.09,2.78-.73,.75-1.7,1.13-2.92,1.13h-29.49c.46,4.06,1.97,7.22,4.52,9.48,2.55,2.26,6.12,3.39,10.7,3.39,2.44,0,4.57-.23,6.39-.7,1.83-.46,3.61-1.13,5.35-2,.46-.23,.99-.35,1.57-.35,.93,0,1.74,.32,2.44,.96,.7,.64,1.04,1.45,1.04,2.44,0,1.28-.75,2.35-2.26,3.22-2.26,1.28-4.5,2.23-6.7,2.87-2.21,.64-5.05,.96-8.53,.96-7.08,0-12.6-2.01-16.57-6.05Zm27.71-20.66c-.17-2.84-.91-5.22-2.22-7.13-1.31-1.91-2.92-3.32-4.83-4.22-1.91-.9-3.86-1.35-5.83-1.35s-3.92,.45-5.83,1.35c-1.91,.9-3.51,2.31-4.78,4.22-1.28,1.91-2,4.29-2.18,7.13h25.67Z" fill="#4374b9"/>
        <path d="M430.22,190.22c-.75-.75-1.13-1.68-1.13-2.78v-37.32c0-1.1,.38-2.04,1.13-2.83,.75-.78,1.68-1.17,2.78-1.17s2.04,.39,2.83,1.17c.78,.78,1.17,1.73,1.17,2.83v3.74c4.06-5.45,8.61-8.18,13.66-8.18h.43c1.1,0,2.01,.38,2.74,1.13,.72,.75,1.09,1.68,1.09,2.78s-.38,2-1.13,2.7c-.75,.7-1.71,1.04-2.87,1.04h-.43c-2.78,0-5.34,.68-7.66,2.04-2.32,1.36-4.26,3.23-5.83,5.61v26.45c0,1.1-.39,2.03-1.17,2.78-.78,.75-1.73,1.13-2.83,1.13s-2.03-.38-2.78-1.13Z" fill="#4374b9"/>
      </g>
    </g>
  </g>
</svg>