<?xml version="1.0" encoding="UTF-8"?>
<svg xmlns="http://www.w3.org/2000/svg" width="335.62" height="218.58" viewBox="0 0 335.62 218.58">
  <g id="Layer_1" data-name="Layer 1"/>
  <g id="Layer_2" data-name="Layer 2">
    <g id="Layer_1-2" data-name="Layer 1">
      <circle cx="119.36" cy="67.25" r="64" fill="#fff"/>
      <rect y="90.58" width="335.62" height="128" rx="64" ry="64" fill="#fff"/>
      <circle cx="204.36" cy="102.4" r="102.4" fill="#fff"/>
      <g>
        <path d="M96.38,177.25c-.91-.67-1.59-1.65-2.06-2.93l-17.15-52.67c-.17-.64-.26-1.14-.26-1.49-.06-1.11,.28-2.03,1.01-2.76,.73-.73,1.68-1.09,2.84-1.09,.93,0,1.75,.29,2.45,.88,.7,.58,1.19,1.34,1.49,2.28l14.7,48.3,14.79-48.12c.29-.99,.86-1.79,1.71-2.41,.85-.61,1.79-.92,2.84-.92s2,.31,2.84,.92c.85,.61,1.41,1.42,1.71,2.41l14.79,48.12,14.7-48.3c.29-.93,.79-1.69,1.49-2.28,.7-.58,1.52-.88,2.45-.88,1.17,0,2.11,.37,2.84,1.09,.73,.73,1.06,1.65,1.01,2.76,0,.35-.09,.85-.26,1.49l-17.15,52.67c-.47,1.28-1.15,2.26-2.06,2.93-.91,.67-1.94,1.01-3.11,1.01s-2.23-.37-3.19-1.09c-.96-.73-1.62-1.68-1.97-2.84l-14.09-44.62-14.09,44.62c-.35,1.17-1.01,2.12-1.97,2.84s-2.03,1.09-3.19,1.09-2.2-.34-3.11-1.01Z" fill="#4374b9"/>
        <path d="M169.18,172.61c-4-4.05-5.99-9.76-5.99-17.11,0-4.14,.76-7.96,2.27-11.46,1.52-3.5,3.85-6.33,7-8.49,3.15-2.16,7.03-3.24,11.64-3.24,4.32,0,8.05,1.01,11.2,3.02,3.15,2.01,5.54,4.7,7.17,8.05,1.63,3.35,2.45,7.02,2.45,10.98,0,1.11-.37,2.04-1.09,2.8-.73,.76-1.71,1.14-2.93,1.14h-29.66c.47,4.08,1.98,7.26,4.55,9.54,2.57,2.27,6.15,3.41,10.76,3.41,2.45,0,4.59-.23,6.43-.7,1.84-.47,3.63-1.14,5.38-2.01,.47-.23,.99-.35,1.58-.35,.93,0,1.75,.32,2.45,.96,.7,.64,1.05,1.46,1.05,2.45,0,1.28-.76,2.36-2.28,3.24-2.27,1.28-4.52,2.25-6.74,2.89-2.22,.64-5.08,.96-8.58,.96-7.12,0-12.67-2.03-16.67-6.08Zm27.87-20.78c-.17-2.86-.92-5.25-2.23-7.18-1.31-1.92-2.93-3.34-4.86-4.24-1.93-.9-3.88-1.36-5.86-1.36s-3.94,.45-5.86,1.36c-1.92,.91-3.53,2.32-4.81,4.24-1.28,1.93-2.01,4.32-2.19,7.18h25.81Z" fill="#4374b9"/>
        <path d="M223.38,172.04v2.27c0,1.11-.39,2.04-1.18,2.8-.79,.76-1.74,1.14-2.84,1.14s-2.04-.38-2.8-1.14c-.76-.76-1.14-1.69-1.14-2.8v-56.79c0-1.11,.38-2.06,1.14-2.84,.76-.79,1.69-1.18,2.8-1.18,1.17,0,2.13,.38,2.89,1.14,.76,.76,1.14,1.72,1.14,2.89v21.44c4.26-4.43,9.25-6.65,14.96-6.65,3.62,0,7.04,.92,10.28,2.76,3.24,1.84,5.86,4.52,7.88,8.05,2.01,3.53,3.02,7.66,3.02,12.38s-1.01,8.85-3.02,12.38c-2.01,3.53-4.64,6.21-7.88,8.05-3.24,1.84-6.67,2.76-10.28,2.76-5.72,0-10.71-2.22-14.96-6.65Zm24.24-4.9c2.62-2.74,3.94-6.62,3.94-11.64s-1.31-8.9-3.94-11.64c-2.62-2.74-6.1-4.11-10.41-4.11-2.68,0-5.21,.6-7.57,1.79-2.36,1.2-4.45,2.79-6.26,4.77v18.38c1.81,1.98,3.89,3.57,6.26,4.77,2.36,1.2,4.88,1.79,7.57,1.79,4.32,0,7.79-1.37,10.41-4.11Z" fill="#4374b9"/>
      </g>
    </g>
  </g>
</svg>