<svg xmlns="http://www.w3.org/2000/svg" version="1.1" xmlns:xlink="http://www.w3.org/1999/xlink" xmlns:svgjs="http://svgjs.com/svgjs" width="128" height="86"><svg xmlns="http://www.w3.org/2000/svg" width="128" height="86" viewBox="0 0 128 86">
  <g id="SvgjsG1001" data-name="Layer 3">
    <rect y="37" width="128" height="49" rx="24.5" ry="24.5" fill="#fff"></rect>
    <circle cx="41" cy="35" r="35" fill="#fff"></circle>
    <circle cx="85.5" cy="36.5" r="28.5" fill="#fff"></circle>
  </g>
  <g id="SvgjsG1000" data-name="Layer 1">
    <g>
      <path d="M6.96,66.48c-.78-.33-1.44-.87-1.96-1.62-.52-.75-.78-1.55-.78-2.4,0-1.11,.38-2.07,1.13-2.89,.75-.82,1.71-1.23,2.89-1.23,.65,0,1.27,.13,1.86,.39,6.01,2.68,12.45,4.02,19.31,4.02,11.43,0,17.15-3.76,17.15-11.27,0-1.96-.73-3.59-2.21-4.9-1.47-1.31-3.28-2.33-5.44-3.09-2.16-.75-5.23-1.65-9.21-2.69-5.29-1.37-9.57-2.7-12.84-3.97-3.27-1.27-6.08-3.19-8.43-5.73s-3.53-5.94-3.53-10.19c0-3.72,.98-7.1,2.94-10.14s4.85-5.45,8.67-7.25c3.82-1.8,8.41-2.69,13.77-2.69,7.19,0,13.69,1.08,19.5,3.23,1.83,.65,2.74,1.96,2.74,3.92,0,1.05-.36,1.99-1.08,2.84-.72,.85-1.67,1.27-2.84,1.27-.39,0-.92-.13-1.57-.39-5.1-1.76-10.36-2.65-15.78-2.65s-9.36,.98-12.59,2.94-4.85,4.7-4.85,8.23c0,2.35,.77,4.26,2.3,5.73,1.53,1.47,3.46,2.61,5.78,3.43,2.32,.82,5.47,1.68,9.46,2.6,5.16,1.24,9.33,2.48,12.5,3.72,3.17,1.24,5.88,3.17,8.13,5.78,2.25,2.61,3.38,6.14,3.38,10.58,0,3.66-1.05,6.94-3.14,9.85-2.09,2.91-5.03,5.18-8.82,6.81-3.79,1.63-8.17,2.45-13.13,2.45-8.3,0-16.07-1.57-23.32-4.7Z" fill="#0d3368"></path>
      <path d="M81.69,66.92c-5.19-2.84-9.28-6.92-12.25-12.25-2.97-5.32-4.46-11.55-4.46-18.67s1.48-13.34,4.46-18.67c2.97-5.32,7.06-9.41,12.25-12.25,5.19-2.84,11.06-4.26,17.59-4.26,4.44,0,8.41,.52,11.91,1.57,3.49,1.05,6.97,2.55,10.44,4.51,1.44,.78,2.16,2.03,2.16,3.72,0,.98-.36,1.85-1.08,2.6-.72,.75-1.67,1.13-2.84,1.13-.65,0-1.24-.13-1.76-.39-2.88-1.5-5.68-2.65-8.43-3.43-2.74-.78-5.91-1.18-9.51-1.18-5.62,0-10.4,1.16-14.36,3.48-3.95,2.32-6.93,5.49-8.92,9.51s-2.99,8.58-2.99,13.67,1,9.65,2.99,13.67c1.99,4.02,4.96,7.19,8.92,9.51,3.95,2.32,8.74,3.48,14.36,3.48,3.59,0,6.76-.39,9.51-1.18,2.74-.78,5.55-1.93,8.43-3.43,.52-.26,1.11-.39,1.76-.39,1.18,0,2.12,.36,2.84,1.08,.72,.72,1.08,1.6,1.08,2.65,0,1.7-.72,2.94-2.16,3.72-3.46,1.96-6.94,3.46-10.44,4.51-3.5,1.04-7.46,1.57-11.91,1.57-6.54,0-12.4-1.42-17.59-4.26Z" fill="#0d3368"></path>
    </g>
  </g>
</svg><style>@media (prefers-color-scheme: light) { :root { filter: none; } }
</style></svg>